<?xml version="1.0" encoding="UTF-8"?><svg xmlns="http://www.w3.org/2000/svg" xmlns:xlink="http://www.w3.org/1999/xlink" width="375" zoomAndPan="magnify" viewBox="0 0 375 374.999991" height="374.999991" preserveAspectRatio="xMidYMid meet" version="1.0"><defs><clipPath id="clip-0"><path d="M 48.3125 37.5 L 326.5625 37.5 L 326.5625 330.75 L 48.3125 330.75 Z M 48.3125 37.5 " clip-rule="nonzero"/></clipPath></defs><rect x="-37.5" width="450" fill="rgb(100%, 100%, 100%)" y="-37.499999" height="449.999989" fill-opacity="1"/><rect x="-37.5" width="450" fill="rgb(100%, 100%, 100%)" y="-37.499999" height="449.999989" fill-opacity="1"/><rect x="-37.5" width="450" fill="rgb(100%, 100%, 100%)" y="-37.499999" height="449.999989" fill-opacity="1"/><g clip-path="url(#clip-0)"><path fill="rgb(43.919373%, 0%, 76.858521%)" d="M 211.988281 173.179688 L 170.878906 149.4375 L 216.1875 93.027344 L 111.535156 148.398438 L 152.644531 172.140625 L 107.335938 228.550781 Z M 180.703125 265.003906 C 164.203125 266.585938 148.585938 272.53125 138.597656 284.484375 C 135.648438 287.746094 132.476562 295.398438 128.164062 292.90625 L 63.082031 255.582031 C 58.375 252.886719 52.394531 254.367188 49.765625 258.921875 C 47.136719 263.472656 48.828125 269.417969 53.535156 272.125 L 65.21875 278.878906 C 62.460938 288.011719 67.949219 299.292969 78.773438 305.542969 C 89.585938 311.789062 102.101562 310.90625 108.628906 303.949219 L 123.546875 311.890625 C 127.179688 313.828125 131.402344 313.585938 134.421875 311.308594 C 151.53125 298.394531 155.375 287.152344 183.03125 301.242188 C 194.636719 307.425781 211.773438 315.75 227.539062 322.972656 C 283.683594 348.699219 272.253906 303.214844 278.664062 290.996094 C 296.695312 286.707031 291.421875 275.324219 291.421875 275.324219 C 300.589844 272.265625 299.832031 265.925781 299.832031 265.925781 C 296.773438 248.800781 301.515625 248.042969 301.515625 248.042969 C 338.488281 254.773438 323.210938 231.839844 323.210938 231.839844 C 299.679688 193.628906 310.832031 173.304688 310.832031 173.304688 C 328.777344 97.71875 256.890625 34.871094 179.855469 37.550781 C 258.949219 46.910156 296.34375 144.148438 260.292969 206.621094 C 241.335938 239.453125 216.160156 261.5625 180.703125 264.964844 Z M 180.703125 265.003906 " fill-opacity="1" fill-rule="evenodd"/></g></svg>